<svg width="29" height="29" viewBox="0 0 29 29" fill="none" xmlns="http://www.w3.org/2000/svg">
<path d="M18.5478 0.722656L24.473 4.58197C23.844 3.89391 23.147 3.26848 22.3935 2.71627L21.0728 1.85619C20.277 1.39925 19.4309 1.01905 18.5469 0.722656H18.5478Z" fill="white"/>
<path d="M11.5426 0.226562C11.3414 0.26273 11.1429 0.30419 10.9453 0.349179L27.9058 11.3952C27.8669 11.195 27.8246 10.9974 27.7778 10.8007L11.5426 0.226562Z" fill="white"/>
<path d="M6.87583 1.97656C6.73997 2.05772 6.60499 2.13976 6.47266 2.22532L27.9906 16.2397C28.0144 16.0836 28.0356 15.9274 28.0541 15.7695L6.87583 1.97656Z" fill="white"/>
<path d="M3.60438 4.67969C3.50822 4.78731 3.41383 4.89581 3.32031 5.00608L26.7376 20.2581C26.8011 20.1284 26.8629 19.9988 26.922 19.8664L3.60438 4.67969Z" fill="white"/>
<path d="M1.44396 7.86328C1.38044 7.99207 1.3178 8.12263 1.25781 8.25406L24.5869 23.4479C24.6831 23.3402 24.7775 23.2309 24.8701 23.1206L1.44396 7.86328Z" fill="white"/>
<path d="M0.171634 11.8672C0.146933 12.0224 0.124877 12.1786 0.105469 12.3356L21.3217 26.1533C21.4567 26.0721 21.5907 25.9883 21.7231 25.9027L0.171634 11.8672Z" fill="white"/>
<path d="M0.214844 16.5547C0.250132 16.7523 0.289831 16.9481 0.33306 17.1431L16.8286 27.8865C17.0253 27.8477 17.2212 27.8045 17.4152 27.7569L0.214844 16.5547Z" fill="white"/>
<path d="M1.14453 19.6445C1.22923 19.8404 1.31746 20.0336 1.41009 20.2241L9.58075 25.5451L9.7669 25.2593L1.14453 19.6445Z" fill="white"/>
<path d="M12.144 26.5281L9.89955 25.0664L9.76898 25.2666L9.5837 25.5516L9.45312 25.7518L11.6976 27.2135L12.144 26.5281Z" fill="white"/>
<path d="M12.1433 26.5284L11.6968 27.2138L11.6016 27.3602L12.7273 28.0933C13.1729 28.1356 13.6237 28.1585 14.0798 28.1585C14.3639 28.1585 14.6454 28.1488 14.9251 28.133L12.2377 26.3828L12.1424 26.5292L12.1433 26.5284Z" fill="white"/>
<path d="M0 14.1445C0 14.2821 0.00352906 14.4198 0.00794038 14.5565L7.55395 19.4708L7.74011 19.185L0 14.1445Z" fill="white"/>
<path d="M15.6993 24.0879L7.8683 18.9883L7.73861 19.1876L7.55245 19.4735L7.42188 19.6728L15.2529 24.7724L15.6993 24.0879Z" fill="white"/>
<path d="M15.698 24.087L15.2515 24.7724L15.1562 24.9188L18.8512 27.3253C19.2958 27.1647 19.7308 26.983 20.1534 26.781L15.7941 23.9414L15.6988 24.0878L15.698 24.087Z" fill="white"/>
<path d="M0.654006 9.82031C0.618716 9.93323 0.584307 10.0461 0.550781 10.1599L7.87005 14.9261L8.05621 14.6403L0.654006 9.82031Z" fill="white"/>
<path d="M20.0715 22.183L8.18471 14.4414L8.05413 14.6417L7.86797 14.9266L7.73828 15.1268L19.625 22.8684L20.0715 22.183Z" fill="white"/>
<path d="M20.1682 22.0312L20.073 22.1777L19.6265 22.8631L19.5312 23.0095L22.793 25.1337C23.1115 24.8823 23.4176 24.6177 23.7132 24.3407L20.1682 22.0321V22.0312Z" fill="white"/>
<path d="M2.34934 6.28906C2.2867 6.38345 2.22494 6.47872 2.16406 6.57487L9.43039 11.3066L9.61655 11.0208L2.34934 6.28906Z" fill="white"/>
<path d="M23.819 19.9904L9.7433 10.8242L9.61361 11.0236L9.42745 11.3094L9.29688 11.5088L23.3725 20.6758L23.819 19.9904Z" fill="white"/>
<path d="M23.9182 19.8398L23.823 19.9863L23.3765 20.6717L23.2812 20.8181L25.524 22.2789C25.7507 21.9631 25.9642 21.6385 26.1645 21.3042L23.9174 19.8407L23.9182 19.8398Z" fill="white"/>
<path d="M5.04253 3.28516C4.95165 3.36102 4.86255 3.43865 4.77344 3.51627L12.1686 8.3327L12.3547 8.04689L5.04253 3.28516Z" fill="white"/>
<path d="M24.3683 15.5892L12.4807 7.84766L12.351 8.0479L12.1648 8.33283L12.0352 8.53307L23.9219 16.2746L24.3683 15.5892Z" fill="white"/>
<path d="M24.3698 15.5957L23.9234 16.2811L23.8281 16.4275L27.3731 18.736C27.5063 18.355 27.6245 17.9677 27.7251 17.5725L24.4651 15.4492L24.3698 15.5957Z" fill="white"/>
<path d="M8.96279 0.957031C8.83398 1.00731 8.70517 1.05936 8.57812 1.11317L16.3712 6.18894L16.5573 5.90313L8.96279 0.957031Z" fill="white"/>
<path d="M24.404 10.7277L16.6886 5.70312L16.558 5.90249L16.3728 6.1883L16.2422 6.38766L23.9576 11.4123L24.404 10.7277Z" fill="white"/>
<path d="M24.4964 10.5859L24.4011 10.7324L23.9547 11.4178L23.8594 11.5642L28.1542 14.3606C28.156 14.2671 28.1578 14.1744 28.1578 14.0809C28.1578 13.6972 28.1419 13.317 28.1119 12.9403L24.4973 10.5859H24.4964Z" fill="white"/>
<path d="M14.6162 0.0114677C14.4371 0.00441065 14.258 0 14.0771 0C14.0436 0 14.0101 0.000882129 13.9766 0.000882129L22.8627 5.78853L23.0489 5.50272L14.6162 0.0114677Z" fill="white"/>
<path d="M25.1377 6.57546L23.1808 5.30078L23.0511 5.50014L22.865 5.78595L22.7344 5.9862L24.6912 7.25999L25.1377 6.57546Z" fill="white"/>
<path d="M25.2307 6.42969L25.1355 6.57612L24.689 7.26153L24.5938 7.40797L27.2697 9.15106C27.0103 8.45682 26.6971 7.78817 26.3362 7.15039L25.2307 6.43057V6.42969Z" fill="white"/>
<path d="M9.37454 27.3551L3.85156 23.7578C5.36641 25.3589 7.25358 26.6036 9.37454 27.3551Z" fill="white"/>
</svg>
