<svg width="184" height="49" viewBox="0 0 184 49" fill="none" xmlns="http://www.w3.org/2000/svg">
<path d="M30.655 7.07275L38.4802 12.1097C37.6494 11.2117 36.729 10.3954 35.7339 9.67468L33.9897 8.55217C32.9387 7.9558 31.8213 7.45959 30.6538 7.07275H30.655Z" fill="#FAFAFC"/>
<path d="M21.4016 6.42114C21.1359 6.46835 20.8738 6.52246 20.6128 6.58117L43.0116 20.9977C42.9603 20.7363 42.9044 20.4784 42.8426 20.2217L21.4016 6.42114Z" fill="#FAFAFC"/>
<path d="M15.2429 8.7063C15.0635 8.81222 14.8852 8.91929 14.7104 9.03096L43.128 27.3216C43.1595 27.1178 43.1875 26.914 43.2119 26.7079L15.2429 8.7063Z" fill="#FAFAFC"/>
<path d="M10.9167 12.2285C10.7897 12.369 10.665 12.5106 10.5415 12.6545L41.4675 32.5603C41.5514 32.3911 41.633 32.2219 41.711 32.0492L10.9167 12.2285Z" fill="#FAFAFC"/>
<path d="M8.06615 16.3884C7.98226 16.5565 7.89954 16.7269 7.82031 16.8985L38.6298 36.7283C38.7568 36.5879 38.8815 36.4451 39.0038 36.3012L8.06615 16.3884Z" fill="#FAFAFC"/>
<path d="M6.38865 21.6089C6.35603 21.8115 6.3269 22.0153 6.30127 22.2202L34.3204 40.2541C34.4987 40.1482 34.6758 40.0388 34.8505 39.9271L6.38865 21.6089Z" fill="#FAFAFC"/>
<path d="M6.44531 27.7317C6.49192 27.9896 6.54434 28.2452 6.60143 28.4996L28.3862 42.5212C28.646 42.4705 28.9047 42.4141 29.161 42.352L6.44531 27.7317Z" fill="#FAFAFC"/>
<path d="M7.67188 31.7686C7.78373 32.0241 7.90025 32.2763 8.02259 32.525L18.8131 39.4696L19.059 39.0965L7.67188 31.7686Z" fill="#FAFAFC"/>
<path d="M22.1963 40.7424L19.2321 38.8347L19.0597 39.0961L18.815 39.4679L18.6426 39.7293L21.6067 41.637L22.1963 40.7424Z" fill="#FAFAFC"/>
<path d="M22.1949 40.7473L21.6053 41.6419L21.4795 41.833L22.9662 42.7897C23.5546 42.845 24.15 42.8749 24.7524 42.8749C25.1276 42.8749 25.4993 42.8623 25.8687 42.8415L22.3196 40.5574L22.1937 40.7485L22.1949 40.7473Z" fill="#FAFAFC"/>
<path d="M6.15918 24.5889C6.15918 24.7685 6.16384 24.9481 6.16967 25.1265L16.1353 31.5404L16.3811 31.1674L6.15918 24.5889Z" fill="#FAFAFC"/>
<path d="M26.8954 37.5624L16.5534 30.9067L16.3822 31.1669L16.1363 31.5399L15.9639 31.8001L26.3058 38.4558L26.8954 37.5624Z" fill="#FAFAFC"/>
<path d="M26.8956 37.563L26.306 38.4576L26.1802 38.6487L31.0599 41.7894C31.6471 41.5799 32.2215 41.3427 32.7796 41.0791L27.0226 37.373L26.8967 37.5642L26.8956 37.563Z" fill="#FAFAFC"/>
<path d="M7.02402 18.9417C6.97741 19.089 6.93197 19.2364 6.8877 19.3849L16.5539 25.6053L16.7997 25.2323L7.02402 18.9417Z" fill="#FAFAFC"/>
<path d="M32.6681 35.0771L16.9699 24.9734L16.7975 25.2347L16.5516 25.6066L16.3804 25.8679L32.0786 35.9717L32.6681 35.0771Z" fill="#FAFAFC"/>
<path d="M32.7973 34.8813L32.6715 35.0725L32.0819 35.967L31.9561 36.1581L36.2637 38.9304C36.6843 38.6023 37.0886 38.2569 37.4789 37.8954L32.7973 34.8825V34.8813Z" fill="#FAFAFC"/>
<path d="M9.25933 14.3333C9.17661 14.4564 9.09504 14.5808 9.01465 14.7063L18.6109 20.8818L18.8568 20.5088L9.25933 14.3333Z" fill="#FAFAFC"/>
<path d="M37.617 32.2133L19.028 20.2502L18.8568 20.5104L18.6109 20.8835L18.4385 21.1436L37.0274 33.1079L37.617 32.2133Z" fill="#FAFAFC"/>
<path d="M37.7441 32.0193L37.6182 32.2104L37.0287 33.105L36.9028 33.2961L39.8647 35.2026C40.1641 34.7904 40.4461 34.3668 40.7106 33.9304L37.7429 32.0204L37.7441 32.0193Z" fill="#FAFAFC"/>
<path d="M12.8144 10.4124C12.6943 10.5114 12.5767 10.6127 12.459 10.714L22.2254 17.0001L22.4712 16.627L12.8144 10.4124Z" fill="#FAFAFC"/>
<path d="M38.341 26.4685L22.6416 16.3647L22.4704 16.6261L22.2245 16.998L22.0532 17.2593L37.7514 27.363L38.341 26.4685Z" fill="#FAFAFC"/>
<path d="M38.338 26.4753L37.7484 27.3698L37.6226 27.561L42.3042 30.5739C42.4801 30.0765 42.6362 29.5711 42.7691 29.0553L38.4638 26.2842L38.338 26.4753Z" fill="#FAFAFC"/>
<path d="M17.9963 7.3728C17.8262 7.43843 17.6561 7.50635 17.4883 7.57658L27.7801 14.2011L28.026 13.8281L17.9963 7.3728Z" fill="#FAFAFC"/>
<path d="M38.3868 20.1271L28.1975 13.5693L28.025 13.8295L27.7804 14.2025L27.6079 14.4627L37.7972 21.0205L38.3868 20.1271Z" fill="#FAFAFC"/>
<path d="M38.5102 19.9382L38.3844 20.1293L37.7948 21.0239L37.6689 21.215L43.3409 24.8646C43.3433 24.7426 43.3456 24.6217 43.3456 24.4997C43.3456 23.9988 43.3246 23.5026 43.285 23.011L38.5114 19.9382H38.5102Z" fill="#FAFAFC"/>
<path d="M25.4619 6.13997C25.2254 6.13076 24.9889 6.125 24.75 6.125C24.7057 6.125 24.6615 6.12615 24.6172 6.12615L36.3527 13.6798L36.5985 13.3068L25.4619 6.13997Z" fill="#FAFAFC"/>
<path d="M39.356 14.7073L36.7717 13.0437L36.6004 13.3039L36.3546 13.6769L36.1821 13.9383L38.7665 15.6007L39.356 14.7073Z" fill="#FAFAFC"/>
<path d="M39.4814 14.5203L39.3555 14.7114L38.766 15.6059L38.6401 15.797L42.1741 18.072C41.8315 17.1659 41.4179 16.2933 40.9413 15.4609L39.4814 14.5214V14.5203Z" fill="#FAFAFC"/>
<path d="M18.542 41.8219L11.248 37.127C13.2486 39.2166 15.7409 40.841 18.542 41.8219Z" fill="#FAFAFC"/>
<path d="M55.3671 29.1669L55.3125 28.8618H57.6261L57.7074 29.0552C58.3058 30.9387 61.1376 31.5212 63.1247 31.5212C65.4382 31.5212 68.3781 30.7453 68.3781 28.2804C68.3781 25.8154 65.2476 25.371 63.0154 25.371C59.6398 25.371 55.6379 24.9278 55.6379 20.6058C55.6379 16.6442 59.0681 15.2869 62.553 15.2869C65.5207 15.2869 69.6586 16.2839 70.2571 19.7746L70.3117 20.0797H67.9981L67.9168 19.8863C67.3718 18.0304 64.705 17.449 62.7714 17.449C60.5938 17.449 57.9526 18.1973 57.9526 20.4688C57.9526 22.7403 60.7298 23.2112 62.8528 23.2112C66.3376 23.2112 70.6928 23.6545 70.6928 28.1422C70.6928 32.2972 67.0174 33.711 63.3966 33.711C60.4288 33.711 56.019 32.714 55.366 29.168L55.3671 29.1669Z" fill="#FAFAFC"/>
<path d="M76.0605 33.7099V15.2869H87.9455C91.033 15.2869 92.5633 17.6816 92.5633 20.3572C92.5633 23.0328 91.033 25.371 87.9455 25.371H78.3613V33.7099H76.0605ZM78.3613 23.2377H87.8595C89.4608 23.2377 90.1394 22.007 90.1394 20.4677C90.1394 18.9284 89.4341 17.6136 87.8595 17.6136H78.3613V23.2377Z" fill="#FAFAFC"/>
<path d="M113.979 33.7099H111.647V25.5783H100.068V33.7099H97.7363V15.2869H100.068V23.4046H111.647V15.2869H113.979V33.7099Z" fill="#FAFAFC"/>
<path d="M119.188 15.2869H135.099V17.5664H121.488V23.4541H131.647V25.5437H121.488V31.4314H135.099V33.711H119.188V15.2869Z" fill="#FAFAFC"/>
<path d="M161.931 15.2869H177.841V17.5664H164.23V23.4541H174.39V25.5437H164.23V31.4314H177.841V33.711H161.931V15.2869Z" fill="#FAFAFC"/>
<path d="M140.276 33.7099V15.2869H152.211C155.311 15.2869 156.847 17.8289 156.847 20.4999C156.847 22.89 155.64 25.3077 152.787 25.477C152.513 25.477 152.265 25.5057 151.991 25.5057L156.409 33.711H153.619L149.316 25.5437H142.578V33.711H140.277L140.276 33.7099ZM142.577 23.2642H152.258C153.891 23.2642 154.582 22.0173 154.582 20.4573C154.582 18.8973 153.863 17.5664 152.258 17.5664H142.577V23.2642Z" fill="#FAFAFC"/>
</svg>
